<svg width="506" height="142" viewBox="0 0 506 142" fill="none" xmlns="http://www.w3.org/2000/svg">
<g clip-path="url(#clip0)">
<mask id="path-1-outside-1" maskUnits="userSpaceOnUse" x="6" y="4" width="494" height="142" fill="black">
<rect fill="white" x="6" y="4" width="494" height="142"/>
<path d="M12.176 112.27V60.3933H79.9847V57.3596H12.176V10.0337H84.2724V7H9V115.303H84.9076V112.27H12.176ZM146.047 37.3371L117.938 72.6798L90.4657 37.3371H86.3368L116.033 74.9551L83.4784 115.303H87.2896L117.938 77.2303L148.746 115.303H152.716L120.003 74.9551L149.858 37.3371H146.047ZM162.244 142V93.4607H162.562C164.468 100.539 168.226 106.228 173.837 110.525C179.448 114.823 186.594 116.972 195.275 116.972C200.886 116.972 205.862 115.885 210.203 113.711C214.543 111.537 218.169 108.579 221.081 104.837C223.992 101.095 226.215 96.7472 227.75 91.7921C229.286 86.8371 230.053 81.6292 230.053 76.1685C230.053 70.3033 229.259 64.8933 227.671 59.9382C226.083 54.9831 223.78 50.6854 220.763 47.0449C217.746 43.4045 214.093 40.573 209.806 38.5506C205.518 36.5281 200.675 35.5169 195.275 35.5169C191.146 35.5169 187.309 36.0983 183.762 37.2612C180.216 38.4242 177.066 40.0674 174.313 42.191C171.561 44.3146 169.179 46.8174 167.167 49.6994C165.156 52.5815 163.621 55.7416 162.562 59.1798H162.244V37.3371H159.068V142H162.244ZM195.275 114.09C185.324 114.09 177.331 110.829 171.296 104.306C165.262 97.7837 162.244 88.4046 162.244 76.1685C162.244 71.1123 162.985 66.309 164.468 61.7584C165.95 57.2078 168.094 53.2135 170.899 49.7753C173.705 46.3371 177.172 43.6068 181.301 41.5843C185.43 39.5618 190.088 38.5506 195.275 38.5506C200.569 38.5506 205.2 39.5618 209.171 41.5843C213.141 43.6068 216.422 46.3623 219.016 49.8511C221.61 53.3399 223.569 57.3342 224.892 61.8343C226.215 66.3343 226.877 71.1123 226.877 76.1685C226.877 80.7191 226.268 85.2444 225.051 89.7444C223.833 94.2444 221.954 98.2893 219.413 101.879C216.872 105.469 213.617 108.402 209.647 110.677C205.677 112.952 200.886 114.09 195.275 114.09ZM247.521 115.303V71.1629C247.521 66.9157 248.157 62.7697 249.427 58.7247C250.697 54.6798 252.656 51.1152 255.303 48.0309C257.949 44.9466 261.311 42.5197 265.387 40.75C269.463 38.9803 274.306 38.2472 279.917 38.5506V35.5169C275.047 35.4157 270.786 35.9213 267.133 37.0337C263.481 38.1461 260.331 39.6629 257.685 41.5843C255.038 43.5056 252.921 45.7556 251.333 48.3343C249.745 50.9129 248.58 53.6685 247.839 56.6011H247.521V37.3371H244.345V115.303H247.521ZM283.887 76.927H352.172C352.384 71.5674 351.828 66.4101 350.505 61.4551C349.181 56.5 347.064 52.1011 344.153 48.2584C341.241 44.4157 337.483 41.3315 332.878 39.0056C328.272 36.6798 322.794 35.5169 316.442 35.5169C311.889 35.5169 307.443 36.427 303.102 38.2472C298.762 40.0674 294.95 42.7219 291.668 46.2107C288.386 49.6995 285.74 53.9719 283.728 59.0281C281.717 64.0843 280.711 69.8483 280.711 76.3202C280.711 82.0843 281.399 87.4691 282.775 92.4747C284.152 97.4804 286.269 101.829 289.128 105.52C291.986 109.211 295.665 112.067 300.164 114.09C304.664 116.112 310.089 117.073 316.442 116.972C325.758 116.972 333.592 114.469 339.944 109.463C346.296 104.458 350.055 97.4045 351.219 88.3034H348.043C346.667 96.8989 343.147 103.345 337.483 107.643C331.819 111.941 324.699 114.09 316.124 114.09C310.301 114.09 305.378 113.129 301.355 111.208C297.332 109.287 294.05 106.657 291.51 103.32C288.969 99.9831 287.09 96.0646 285.872 91.5646C284.655 87.0646 283.993 82.1854 283.887 76.927ZM348.996 73.8933H283.887C284.205 68.4326 285.263 63.5281 287.063 59.1798C288.863 54.8314 291.218 51.1152 294.13 48.0309C297.041 44.9466 300.429 42.5955 304.293 40.9775C308.157 39.3595 312.313 38.5506 316.759 38.5506C322.053 38.5506 326.711 39.4859 330.734 41.3567C334.757 43.2275 338.118 45.7809 340.818 49.0169C343.517 52.2528 345.555 56.0196 346.932 60.3174C348.308 64.6152 348.996 69.1404 348.996 73.8933ZM418.075 60.3933H421.251C421.251 51.6966 418.605 45.3764 413.311 41.4326C408.018 37.4887 400.819 35.5169 391.714 35.5169C386.632 35.5169 382.345 36.1236 378.851 37.3371C375.357 38.5506 372.499 40.118 370.276 42.0393C368.052 43.9607 366.464 46.0843 365.512 48.4101C364.559 50.736 364.082 52.9607 364.082 55.0843C364.082 59.3315 364.876 62.7191 366.464 65.2472C368.052 67.7753 370.54 69.7472 373.928 71.1629C376.257 72.1742 378.904 73.0843 381.868 73.8933C384.833 74.7023 388.273 75.5618 392.19 76.4719C395.684 77.2809 399.125 78.0899 402.513 78.8989C405.9 79.7079 408.891 80.7949 411.485 82.1601C414.079 83.5253 416.196 85.2697 417.837 87.3933C419.478 89.5169 420.298 92.2977 420.298 95.736C420.298 99.073 419.478 101.904 417.837 104.23C416.196 106.556 414.105 108.452 411.564 109.919C409.023 111.385 406.191 112.447 403.068 113.104C399.945 113.761 396.902 114.09 393.937 114.09C384.303 114.09 376.919 112.042 371.784 107.947C366.65 103.851 364.082 97.4045 364.082 88.6067H360.906C360.906 98.4158 363.685 105.595 369.243 110.146C374.802 114.697 383.033 116.972 393.937 116.972C397.431 116.972 400.951 116.593 404.498 115.834C408.044 115.076 411.22 113.837 414.026 112.118C416.831 110.399 419.107 108.174 420.854 105.444C422.601 102.713 423.474 99.3764 423.474 95.4326C423.474 91.691 422.707 88.6573 421.172 86.3315C419.637 84.0056 417.625 82.0843 415.137 80.5674C412.649 79.0506 409.844 77.8624 406.721 77.0028C403.598 76.1433 400.448 75.309 397.272 74.5C392.826 73.3876 388.935 72.427 385.6 71.618C382.265 70.809 379.169 69.8483 376.31 68.736C373.558 67.6236 371.361 66.0309 369.72 63.9579C368.079 61.8848 367.258 58.927 367.258 55.0843C367.258 54.3764 367.47 53.1124 367.894 51.2921C368.317 49.4719 369.323 47.6264 370.911 45.7556C372.499 43.8848 374.934 42.2163 378.216 40.75C381.498 39.2837 385.997 38.5506 391.714 38.5506C395.631 38.5506 399.204 38.9551 402.433 39.764C405.662 40.573 408.441 41.8623 410.77 43.632C413.099 45.4017 414.899 47.6517 416.17 50.382C417.44 53.1124 418.075 56.4494 418.075 60.3933ZM491.601 60.3933H494.777C494.777 51.6966 492.13 45.3764 486.837 41.4326C481.543 37.4887 474.344 35.5169 465.24 35.5169C460.158 35.5169 455.87 36.1236 452.377 37.3371C448.883 38.5506 446.024 40.118 443.801 42.0393C441.578 43.9607 439.99 46.0843 439.037 48.4101C438.084 50.736 437.608 52.9607 437.608 55.0843C437.608 59.3315 438.402 62.7191 439.99 65.2472C441.578 67.7753 444.066 69.7472 447.454 71.1629C449.783 72.1742 452.429 73.0843 455.394 73.8933C458.358 74.7023 461.799 75.5618 465.716 76.4719C469.21 77.2809 472.65 78.0899 476.038 78.8989C479.426 79.7079 482.417 80.7949 485.01 82.1601C487.604 83.5253 489.722 85.2697 491.363 87.3933C493.003 89.5169 493.824 92.2977 493.824 95.736C493.824 99.073 493.003 101.904 491.363 104.23C489.722 106.556 487.631 108.452 485.09 109.919C482.549 111.385 479.717 112.447 476.594 113.104C473.471 113.761 470.427 114.09 467.463 114.09C457.829 114.09 450.444 112.042 445.31 107.947C440.175 103.851 437.608 97.4045 437.608 88.6067H434.432C434.432 98.4158 437.211 105.595 442.769 110.146C448.327 114.697 456.558 116.972 467.463 116.972C470.956 116.972 474.476 116.593 478.023 115.834C481.57 115.076 484.746 113.837 487.551 112.118C490.357 110.399 492.633 108.174 494.38 105.444C496.127 102.713 497 99.3764 497 95.4326C497 91.691 496.232 88.6573 494.697 86.3315C493.162 84.0056 491.151 82.0843 488.663 80.5674C486.175 79.0506 483.369 77.8624 480.246 77.0028C477.123 76.1433 473.974 75.309 470.798 74.5C466.351 73.3876 462.46 72.427 459.126 71.618C455.791 70.809 452.694 69.8483 449.836 68.736C447.083 67.6236 444.886 66.0309 443.245 63.9579C441.604 61.8848 440.784 58.927 440.784 55.0843C440.784 54.3764 440.996 53.1124 441.419 51.2921C441.843 49.4719 442.848 47.6264 444.436 45.7556C446.024 43.8848 448.459 42.2163 451.741 40.75C455.023 39.2837 459.523 38.5506 465.24 38.5506C469.157 38.5506 472.73 38.9551 475.959 39.764C479.188 40.573 481.967 41.8623 484.296 43.632C486.625 45.4017 488.425 47.6517 489.695 50.382C490.966 53.1124 491.601 56.4494 491.601 60.3933Z"/>
</mask>
<path d="M12.176 112.27V60.3933H79.9847V57.3596H12.176V10.0337H84.2724V7H9V115.303H84.9076V112.27H12.176ZM146.047 37.3371L117.938 72.6798L90.4657 37.3371H86.3368L116.033 74.9551L83.4784 115.303H87.2896L117.938 77.2303L148.746 115.303H152.716L120.003 74.9551L149.858 37.3371H146.047ZM162.244 142V93.4607H162.562C164.468 100.539 168.226 106.228 173.837 110.525C179.448 114.823 186.594 116.972 195.275 116.972C200.886 116.972 205.862 115.885 210.203 113.711C214.543 111.537 218.169 108.579 221.081 104.837C223.992 101.095 226.215 96.7472 227.75 91.7921C229.286 86.8371 230.053 81.6292 230.053 76.1685C230.053 70.3033 229.259 64.8933 227.671 59.9382C226.083 54.9831 223.78 50.6854 220.763 47.0449C217.746 43.4045 214.093 40.573 209.806 38.5506C205.518 36.5281 200.675 35.5169 195.275 35.5169C191.146 35.5169 187.309 36.0983 183.762 37.2612C180.216 38.4242 177.066 40.0674 174.313 42.191C171.561 44.3146 169.179 46.8174 167.167 49.6994C165.156 52.5815 163.621 55.7416 162.562 59.1798H162.244V37.3371H159.068V142H162.244ZM195.275 114.09C185.324 114.09 177.331 110.829 171.296 104.306C165.262 97.7837 162.244 88.4046 162.244 76.1685C162.244 71.1123 162.985 66.309 164.468 61.7584C165.95 57.2078 168.094 53.2135 170.899 49.7753C173.705 46.3371 177.172 43.6068 181.301 41.5843C185.43 39.5618 190.088 38.5506 195.275 38.5506C200.569 38.5506 205.2 39.5618 209.171 41.5843C213.141 43.6068 216.422 46.3623 219.016 49.8511C221.61 53.3399 223.569 57.3342 224.892 61.8343C226.215 66.3343 226.877 71.1123 226.877 76.1685C226.877 80.7191 226.268 85.2444 225.051 89.7444C223.833 94.2444 221.954 98.2893 219.413 101.879C216.872 105.469 213.617 108.402 209.647 110.677C205.677 112.952 200.886 114.09 195.275 114.09ZM247.521 115.303V71.1629C247.521 66.9157 248.157 62.7697 249.427 58.7247C250.697 54.6798 252.656 51.1152 255.303 48.0309C257.949 44.9466 261.311 42.5197 265.387 40.75C269.463 38.9803 274.306 38.2472 279.917 38.5506V35.5169C275.047 35.4157 270.786 35.9213 267.133 37.0337C263.481 38.1461 260.331 39.6629 257.685 41.5843C255.038 43.5056 252.921 45.7556 251.333 48.3343C249.745 50.9129 248.58 53.6685 247.839 56.6011H247.521V37.3371H244.345V115.303H247.521ZM283.887 76.927H352.172C352.384 71.5674 351.828 66.4101 350.505 61.4551C349.181 56.5 347.064 52.1011 344.153 48.2584C341.241 44.4157 337.483 41.3315 332.878 39.0056C328.272 36.6798 322.794 35.5169 316.442 35.5169C311.889 35.5169 307.443 36.427 303.102 38.2472C298.762 40.0674 294.95 42.7219 291.668 46.2107C288.386 49.6995 285.74 53.9719 283.728 59.0281C281.717 64.0843 280.711 69.8483 280.711 76.3202C280.711 82.0843 281.399 87.4691 282.775 92.4747C284.152 97.4804 286.269 101.829 289.128 105.52C291.986 109.211 295.665 112.067 300.164 114.09C304.664 116.112 310.089 117.073 316.442 116.972C325.758 116.972 333.592 114.469 339.944 109.463C346.296 104.458 350.055 97.4045 351.219 88.3034H348.043C346.667 96.8989 343.147 103.345 337.483 107.643C331.819 111.941 324.699 114.09 316.124 114.09C310.301 114.09 305.378 113.129 301.355 111.208C297.332 109.287 294.05 106.657 291.51 103.32C288.969 99.9831 287.09 96.0646 285.872 91.5646C284.655 87.0646 283.993 82.1854 283.887 76.927ZM348.996 73.8933H283.887C284.205 68.4326 285.263 63.5281 287.063 59.1798C288.863 54.8314 291.218 51.1152 294.13 48.0309C297.041 44.9466 300.429 42.5955 304.293 40.9775C308.157 39.3595 312.313 38.5506 316.759 38.5506C322.053 38.5506 326.711 39.4859 330.734 41.3567C334.757 43.2275 338.118 45.7809 340.818 49.0169C343.517 52.2528 345.555 56.0196 346.932 60.3174C348.308 64.6152 348.996 69.1404 348.996 73.8933ZM418.075 60.3933H421.251C421.251 51.6966 418.605 45.3764 413.311 41.4326C408.018 37.4887 400.819 35.5169 391.714 35.5169C386.632 35.5169 382.345 36.1236 378.851 37.3371C375.357 38.5506 372.499 40.118 370.276 42.0393C368.052 43.9607 366.464 46.0843 365.512 48.4101C364.559 50.736 364.082 52.9607 364.082 55.0843C364.082 59.3315 364.876 62.7191 366.464 65.2472C368.052 67.7753 370.54 69.7472 373.928 71.1629C376.257 72.1742 378.904 73.0843 381.868 73.8933C384.833 74.7023 388.273 75.5618 392.19 76.4719C395.684 77.2809 399.125 78.0899 402.513 78.8989C405.9 79.7079 408.891 80.7949 411.485 82.1601C414.079 83.5253 416.196 85.2697 417.837 87.3933C419.478 89.5169 420.298 92.2977 420.298 95.736C420.298 99.073 419.478 101.904 417.837 104.23C416.196 106.556 414.105 108.452 411.564 109.919C409.023 111.385 406.191 112.447 403.068 113.104C399.945 113.761 396.902 114.09 393.937 114.09C384.303 114.09 376.919 112.042 371.784 107.947C366.65 103.851 364.082 97.4045 364.082 88.6067H360.906C360.906 98.4158 363.685 105.595 369.243 110.146C374.802 114.697 383.033 116.972 393.937 116.972C397.431 116.972 400.951 116.593 404.498 115.834C408.044 115.076 411.22 113.837 414.026 112.118C416.831 110.399 419.107 108.174 420.854 105.444C422.601 102.713 423.474 99.3764 423.474 95.4326C423.474 91.691 422.707 88.6573 421.172 86.3315C419.637 84.0056 417.625 82.0843 415.137 80.5674C412.649 79.0506 409.844 77.8624 406.721 77.0028C403.598 76.1433 400.448 75.309 397.272 74.5C392.826 73.3876 388.935 72.427 385.6 71.618C382.265 70.809 379.169 69.8483 376.31 68.736C373.558 67.6236 371.361 66.0309 369.72 63.9579C368.079 61.8848 367.258 58.927 367.258 55.0843C367.258 54.3764 367.47 53.1124 367.894 51.2921C368.317 49.4719 369.323 47.6264 370.911 45.7556C372.499 43.8848 374.934 42.2163 378.216 40.75C381.498 39.2837 385.997 38.5506 391.714 38.5506C395.631 38.5506 399.204 38.9551 402.433 39.764C405.662 40.573 408.441 41.8623 410.77 43.632C413.099 45.4017 414.899 47.6517 416.17 50.382C417.44 53.1124 418.075 56.4494 418.075 60.3933ZM491.601 60.3933H494.777C494.777 51.6966 492.13 45.3764 486.837 41.4326C481.543 37.4887 474.344 35.5169 465.24 35.5169C460.158 35.5169 455.87 36.1236 452.377 37.3371C448.883 38.5506 446.024 40.118 443.801 42.0393C441.578 43.9607 439.99 46.0843 439.037 48.4101C438.084 50.736 437.608 52.9607 437.608 55.0843C437.608 59.3315 438.402 62.7191 439.99 65.2472C441.578 67.7753 444.066 69.7472 447.454 71.1629C449.783 72.1742 452.429 73.0843 455.394 73.8933C458.358 74.7023 461.799 75.5618 465.716 76.4719C469.21 77.2809 472.65 78.0899 476.038 78.8989C479.426 79.7079 482.417 80.7949 485.01 82.1601C487.604 83.5253 489.722 85.2697 491.363 87.3933C493.003 89.5169 493.824 92.2977 493.824 95.736C493.824 99.073 493.003 101.904 491.363 104.23C489.722 106.556 487.631 108.452 485.09 109.919C482.549 111.385 479.717 112.447 476.594 113.104C473.471 113.761 470.427 114.09 467.463 114.09C457.829 114.09 450.444 112.042 445.31 107.947C440.175 103.851 437.608 97.4045 437.608 88.6067H434.432C434.432 98.4158 437.211 105.595 442.769 110.146C448.327 114.697 456.558 116.972 467.463 116.972C470.956 116.972 474.476 116.593 478.023 115.834C481.57 115.076 484.746 113.837 487.551 112.118C490.357 110.399 492.633 108.174 494.38 105.444C496.127 102.713 497 99.3764 497 95.4326C497 91.691 496.232 88.6573 494.697 86.3315C493.162 84.0056 491.151 82.0843 488.663 80.5674C486.175 79.0506 483.369 77.8624 480.246 77.0028C477.123 76.1433 473.974 75.309 470.798 74.5C466.351 73.3876 462.46 72.427 459.126 71.618C455.791 70.809 452.694 69.8483 449.836 68.736C447.083 67.6236 444.886 66.0309 443.245 63.9579C441.604 61.8848 440.784 58.927 440.784 55.0843C440.784 54.3764 440.996 53.1124 441.419 51.2921C441.843 49.4719 442.848 47.6264 444.436 45.7556C446.024 43.8848 448.459 42.2163 451.741 40.75C455.023 39.2837 459.523 38.5506 465.24 38.5506C469.157 38.5506 472.73 38.9551 475.959 39.764C479.188 40.573 481.967 41.8623 484.296 43.632C486.625 45.4017 488.425 47.6517 489.695 50.382C490.966 53.1124 491.601 56.4494 491.601 60.3933Z" fill="#222222"/>
<path d="M12.176 112.27V60.3933H79.9847V57.3596H12.176V10.0337H84.2724V7H9V115.303H84.9076V112.27H12.176ZM146.047 37.3371L117.938 72.6798L90.4657 37.3371H86.3368L116.033 74.9551L83.4784 115.303H87.2896L117.938 77.2303L148.746 115.303H152.716L120.003 74.9551L149.858 37.3371H146.047ZM162.244 142V93.4607H162.562C164.468 100.539 168.226 106.228 173.837 110.525C179.448 114.823 186.594 116.972 195.275 116.972C200.886 116.972 205.862 115.885 210.203 113.711C214.543 111.537 218.169 108.579 221.081 104.837C223.992 101.095 226.215 96.7472 227.75 91.7921C229.286 86.8371 230.053 81.6292 230.053 76.1685C230.053 70.3033 229.259 64.8933 227.671 59.9382C226.083 54.9831 223.78 50.6854 220.763 47.0449C217.746 43.4045 214.093 40.573 209.806 38.5506C205.518 36.5281 200.675 35.5169 195.275 35.5169C191.146 35.5169 187.309 36.0983 183.762 37.2612C180.216 38.4242 177.066 40.0674 174.313 42.191C171.561 44.3146 169.179 46.8174 167.167 49.6994C165.156 52.5815 163.621 55.7416 162.562 59.1798H162.244V37.3371H159.068V142H162.244ZM195.275 114.09C185.324 114.09 177.331 110.829 171.296 104.306C165.262 97.7837 162.244 88.4046 162.244 76.1685C162.244 71.1123 162.985 66.309 164.468 61.7584C165.95 57.2078 168.094 53.2135 170.899 49.7753C173.705 46.3371 177.172 43.6068 181.301 41.5843C185.43 39.5618 190.088 38.5506 195.275 38.5506C200.569 38.5506 205.2 39.5618 209.171 41.5843C213.141 43.6068 216.422 46.3623 219.016 49.8511C221.61 53.3399 223.569 57.3342 224.892 61.8343C226.215 66.3343 226.877 71.1123 226.877 76.1685C226.877 80.7191 226.268 85.2444 225.051 89.7444C223.833 94.2444 221.954 98.2893 219.413 101.879C216.872 105.469 213.617 108.402 209.647 110.677C205.677 112.952 200.886 114.09 195.275 114.09ZM247.521 115.303V71.1629C247.521 66.9157 248.157 62.7697 249.427 58.7247C250.697 54.6798 252.656 51.1152 255.303 48.0309C257.949 44.9466 261.311 42.5197 265.387 40.75C269.463 38.9803 274.306 38.2472 279.917 38.5506V35.5169C275.047 35.4157 270.786 35.9213 267.133 37.0337C263.481 38.1461 260.331 39.6629 257.685 41.5843C255.038 43.5056 252.921 45.7556 251.333 48.3343C249.745 50.9129 248.58 53.6685 247.839 56.6011H247.521V37.3371H244.345V115.303H247.521ZM283.887 76.927H352.172C352.384 71.5674 351.828 66.4101 350.505 61.4551C349.181 56.5 347.064 52.1011 344.153 48.2584C341.241 44.4157 337.483 41.3315 332.878 39.0056C328.272 36.6798 322.794 35.5169 316.442 35.5169C311.889 35.5169 307.443 36.427 303.102 38.2472C298.762 40.0674 294.95 42.7219 291.668 46.2107C288.386 49.6995 285.74 53.9719 283.728 59.0281C281.717 64.0843 280.711 69.8483 280.711 76.3202C280.711 82.0843 281.399 87.4691 282.775 92.4747C284.152 97.4804 286.269 101.829 289.128 105.52C291.986 109.211 295.665 112.067 300.164 114.09C304.664 116.112 310.089 117.073 316.442 116.972C325.758 116.972 333.592 114.469 339.944 109.463C346.296 104.458 350.055 97.4045 351.219 88.3034H348.043C346.667 96.8989 343.147 103.345 337.483 107.643C331.819 111.941 324.699 114.09 316.124 114.09C310.301 114.09 305.378 113.129 301.355 111.208C297.332 109.287 294.05 106.657 291.51 103.32C288.969 99.9831 287.09 96.0646 285.872 91.5646C284.655 87.0646 283.993 82.1854 283.887 76.927ZM348.996 73.8933H283.887C284.205 68.4326 285.263 63.5281 287.063 59.1798C288.863 54.8314 291.218 51.1152 294.13 48.0309C297.041 44.9466 300.429 42.5955 304.293 40.9775C308.157 39.3595 312.313 38.5506 316.759 38.5506C322.053 38.5506 326.711 39.4859 330.734 41.3567C334.757 43.2275 338.118 45.7809 340.818 49.0169C343.517 52.2528 345.555 56.0196 346.932 60.3174C348.308 64.6152 348.996 69.1404 348.996 73.8933ZM418.075 60.3933H421.251C421.251 51.6966 418.605 45.3764 413.311 41.4326C408.018 37.4887 400.819 35.5169 391.714 35.5169C386.632 35.5169 382.345 36.1236 378.851 37.3371C375.357 38.5506 372.499 40.118 370.276 42.0393C368.052 43.9607 366.464 46.0843 365.512 48.4101C364.559 50.736 364.082 52.9607 364.082 55.0843C364.082 59.3315 364.876 62.7191 366.464 65.2472C368.052 67.7753 370.54 69.7472 373.928 71.1629C376.257 72.1742 378.904 73.0843 381.868 73.8933C384.833 74.7023 388.273 75.5618 392.19 76.4719C395.684 77.2809 399.125 78.0899 402.513 78.8989C405.9 79.7079 408.891 80.7949 411.485 82.1601C414.079 83.5253 416.196 85.2697 417.837 87.3933C419.478 89.5169 420.298 92.2977 420.298 95.736C420.298 99.073 419.478 101.904 417.837 104.23C416.196 106.556 414.105 108.452 411.564 109.919C409.023 111.385 406.191 112.447 403.068 113.104C399.945 113.761 396.902 114.09 393.937 114.09C384.303 114.09 376.919 112.042 371.784 107.947C366.65 103.851 364.082 97.4045 364.082 88.6067H360.906C360.906 98.4158 363.685 105.595 369.243 110.146C374.802 114.697 383.033 116.972 393.937 116.972C397.431 116.972 400.951 116.593 404.498 115.834C408.044 115.076 411.22 113.837 414.026 112.118C416.831 110.399 419.107 108.174 420.854 105.444C422.601 102.713 423.474 99.3764 423.474 95.4326C423.474 91.691 422.707 88.6573 421.172 86.3315C419.637 84.0056 417.625 82.0843 415.137 80.5674C412.649 79.0506 409.844 77.8624 406.721 77.0028C403.598 76.1433 400.448 75.309 397.272 74.5C392.826 73.3876 388.935 72.427 385.6 71.618C382.265 70.809 379.169 69.8483 376.31 68.736C373.558 67.6236 371.361 66.0309 369.72 63.9579C368.079 61.8848 367.258 58.927 367.258 55.0843C367.258 54.3764 367.47 53.1124 367.894 51.2921C368.317 49.4719 369.323 47.6264 370.911 45.7556C372.499 43.8848 374.934 42.2163 378.216 40.75C381.498 39.2837 385.997 38.5506 391.714 38.5506C395.631 38.5506 399.204 38.9551 402.433 39.764C405.662 40.573 408.441 41.8623 410.77 43.632C413.099 45.4017 414.899 47.6517 416.17 50.382C417.44 53.1124 418.075 56.4494 418.075 60.3933ZM491.601 60.3933H494.777C494.777 51.6966 492.13 45.3764 486.837 41.4326C481.543 37.4887 474.344 35.5169 465.24 35.5169C460.158 35.5169 455.87 36.1236 452.377 37.3371C448.883 38.5506 446.024 40.118 443.801 42.0393C441.578 43.9607 439.99 46.0843 439.037 48.4101C438.084 50.736 437.608 52.9607 437.608 55.0843C437.608 59.3315 438.402 62.7191 439.99 65.2472C441.578 67.7753 444.066 69.7472 447.454 71.1629C449.783 72.1742 452.429 73.0843 455.394 73.8933C458.358 74.7023 461.799 75.5618 465.716 76.4719C469.21 77.2809 472.65 78.0899 476.038 78.8989C479.426 79.7079 482.417 80.7949 485.01 82.1601C487.604 83.5253 489.722 85.2697 491.363 87.3933C493.003 89.5169 493.824 92.2977 493.824 95.736C493.824 99.073 493.003 101.904 491.363 104.23C489.722 106.556 487.631 108.452 485.09 109.919C482.549 111.385 479.717 112.447 476.594 113.104C473.471 113.761 470.427 114.09 467.463 114.09C457.829 114.09 450.444 112.042 445.31 107.947C440.175 103.851 437.608 97.4045 437.608 88.6067H434.432C434.432 98.4158 437.211 105.595 442.769 110.146C448.327 114.697 456.558 116.972 467.463 116.972C470.956 116.972 474.476 116.593 478.023 115.834C481.57 115.076 484.746 113.837 487.551 112.118C490.357 110.399 492.633 108.174 494.38 105.444C496.127 102.713 497 99.3764 497 95.4326C497 91.691 496.232 88.6573 494.697 86.3315C493.162 84.0056 491.151 82.0843 488.663 80.5674C486.175 79.0506 483.369 77.8624 480.246 77.0028C477.123 76.1433 473.974 75.309 470.798 74.5C466.351 73.3876 462.46 72.427 459.126 71.618C455.791 70.809 452.694 69.8483 449.836 68.736C447.083 67.6236 444.886 66.0309 443.245 63.9579C441.604 61.8848 440.784 58.927 440.784 55.0843C440.784 54.3764 440.996 53.1124 441.419 51.2921C441.843 49.4719 442.848 47.6264 444.436 45.7556C446.024 43.8848 448.459 42.2163 451.741 40.75C455.023 39.2837 459.523 38.5506 465.24 38.5506C469.157 38.5506 472.73 38.9551 475.959 39.764C479.188 40.573 481.967 41.8623 484.296 43.632C486.625 45.4017 488.425 47.6517 489.695 50.382C490.966 53.1124 491.601 56.4494 491.601 60.3933Z" stroke="black" stroke-width="6" mask="url(#path-1-outside-1)"/>
</g>
<defs>
<clipPath id="clip0">
<rect width="506" height="142" fill="white"/>
</clipPath>
</defs>
</svg>
